<?xml version="1.0" encoding="utf-8"?>
<!-- Generator: Adobe Illustrator 19.0.0, SVG Export Plug-In . SVG Version: 6.00 Build 0)  -->
<svg version="1.1" id="Layer_1" xmlns="http://www.w3.org/2000/svg" xmlns:xlink="http://www.w3.org/1999/xlink" x="0px" y="0px"
	 viewBox="-300 392 10 10" style="enable-background:new -300 392 10 10;" xml:space="preserve">
<style type="text/css">
	.st0{fill:none;}
</style>
<title>close</title>
<desc>Created with Sketch.</desc>
<g id="close" transform="translate(118.000000, 4.000000)">
	<rect id="Rectangle" x="-421" y="385" class="st0" width="16" height="16"/>
	<path id="Combined-Shape" d="M-413,391.6l-2.8-2.8c-0.4-0.4-1-0.4-1.4,0l0,0l0,0c-0.4,0.4-0.4,1,0,1.4l0,0l2.8,2.8l-2.8,2.8
		c-0.4,0.4-0.4,1,0,1.4l0,0l0,0c0.4,0.4,1,0.4,1.4,0l0,0l2.8-2.8l2.8,2.8c0.4,0.4,1,0.4,1.4,0c0.4-0.4,0.4-1,0-1.4l-2.8-2.8l2.8-2.8
		c0.4-0.4,0.4-1,0-1.4c-0.4-0.4-1-0.4-1.4,0L-413,391.6z"/>
</g>
</svg>
